# xmcd CD database file
#
# Track frame offsets:
#	150
#	15470
#	40021
#	68814
#	94705
#	115431
#	149107
#	168299
#	182679
#
# Disc length: 2811 seconds
#
# Revision: 0
# Processed by: cddbd v1.5.1PL0 Copyright (c) Steve Scherf et al.
# Submitted via: CDex 1.51
#
DISCID=760af909
DTITLE=A.D.D. Trio - Sic bisquitus disintegrat (That's the way the cookie crumbles)
DYEAR=2000
DGENRE=Jazz
TTITLE0=Hopscotch 
TTITLE1=Sic bisquitus disintegrat (That's the way the cookie crumbles)
TTITLE2=Endless none
TTITLE3=Photosynthesis 
TTITLE4=Crinkum-crankum
TTITLE5=Gru*ne Heinrich
TTITLE6=Head joint
TTITLE7=Whammy bar
TTITLE8=Three characters
EXTD=YEAR: 2000
EXTT0=
EXTT1=
EXTT2=
EXTT3=
EXTT4=
EXTT5=
EXTT6=
EXTT7=
EXTT8=
PLAYORDER=
